<svg width="48" height="48" fill="none" xmlns="http://www.w3.org/2000/svg"><path fill-rule="evenodd" clip-rule="evenodd" d="M11.889 3A3.889 3.889 0 008 6.889V41.11A3.889 3.889 0 0011.889 45h24.444a3.889 3.889 0 003.89-3.889V15.222h-8.779A3.444 3.444 0 0128 11.778V3H11.889zm30.107 10.588a1 1 0 00-.067-.073L29.707 1.293A.997.997 0 0029 1H11.889A5.889 5.889 0 006 6.889V41.11A5.889 5.889 0 0011.889 47h24.444a5.889 5.889 0 005.89-5.889V14.222a1 1 0 00-.226-.634zm-3.188-.366L30 4.414v7.364a1.444 1.444 0 001.444 1.444h7.364zM12 25a1 1 0 011-1h18a1 1 0 110 2H13a1 1 0 01-1-1zm0 7a1 1 0 011-1h13a1 1 0 110 2H13a1 1 0 01-1-1z" fill="#fff"/></svg>