<svg width="48" height="48" fill="none" xmlns="http://www.w3.org/2000/svg"><path d="M8.889 33.778H6.444A2.444 2.444 0 004 36.222v7.334A2.445 2.445 0 006.444 46H8.89a2.444 2.444 0 002.444-2.444v-7.334a2.444 2.444 0 00-2.444-2.444z" stroke="#fff" stroke-width="2" stroke-linecap="round" stroke-linejoin="round"/><path d="M11.333 43.556A2.445 2.445 0 0013.778 46h9.181a2.444 2.444 0 002.342-1.743l2.933-7.333c.22-.74.325-1.54-.137-2.161-.46-.621-1.325-.985-2.097-.985h-4.889v-6.03a2.69 2.69 0 00-4.925-1.492l-4.853 7.522v9.778zM30.889 2v9.778a2.445 2.445 0 002.444 2.444h9.778" stroke="#fff" stroke-width="2" stroke-linecap="round" stroke-linejoin="round"/><path d="M8.889 24.244V6.89A4.889 4.889 0 0113.778 2h17.11l12.223 12.222v26.89A4.889 4.889 0 0138.222 46H32.6" stroke="#fff" stroke-width="2" stroke-linecap="round" stroke-linejoin="round"/></svg>