<svg width="32" height="32" fill="none" xmlns="http://www.w3.org/2000/svg"><path d="M16 4c-3.532 0-3.973.015-5.36.072-1.078.02-2.145.21-3.155.558a6.44 6.44 0 00-2.303 1.384 5.833 5.833 0 00-1.5 2.126 8.229 8.229 0 00-.604 2.913C3.013 12.333 3 12.74 3 16s.016 3.667.078 4.947a8.26 8.26 0 00.605 2.913 5.87 5.87 0 001.499 2.126 6.432 6.432 0 002.303 1.384c1.01.348 2.077.537 3.156.558 1.386.06 1.827.072 5.359.072s3.973-.015 5.36-.072a10.33 10.33 0 003.155-.558 6.722 6.722 0 002.303-1.384 6.109 6.109 0 001.5-2.126 8.257 8.257 0 00.604-2.913C28.987 19.667 29 19.26 29 16s-.016-3.667-.078-4.947a8.278 8.278 0 00-.605-2.913 5.868 5.868 0 00-1.499-2.126 6.409 6.409 0 00-2.303-1.384 10.27 10.27 0 00-3.156-.558C19.973 4.012 19.532 4 16 4zm0 2.16c3.467 0 3.884.016 5.254.071.824.01 1.64.15 2.413.415a4.33 4.33 0 011.497.896c.425.392.756.863.97 1.381.287.713.439 1.466.448 2.227.062 1.266.076 1.646.076 4.85 0 3.204-.016 3.585-.08 4.85a6.3 6.3 0 01-.456 2.227c-.212.52-.545.993-.975 1.382a4.1 4.1 0 01-1.495.9 7.77 7.77 0 01-2.422.413c-1.38.057-1.786.07-5.264.07-3.477 0-3.884-.015-5.263-.074a7.914 7.914 0 01-2.423-.421 4.071 4.071 0 01-1.494-.9 3.631 3.631 0 01-.975-1.38 6.349 6.349 0 01-.455-2.235c-.048-1.26-.066-1.649-.066-4.844 0-3.195.018-3.586.066-4.861a6.34 6.34 0 01.46-2.237c.204-.524.538-.997.976-1.381a3.888 3.888 0 011.494-.9 7.728 7.728 0 012.406-.419c1.38-.045 1.787-.06 5.264-.06l.044.03zm0 3.678c-1.32 0-2.61.361-3.709 1.039a6.297 6.297 0 00-2.458 2.765 5.723 5.723 0 00-.38 3.56 6.03 6.03 0 001.827 3.155 6.865 6.865 0 003.418 1.687 7.193 7.193 0 003.857-.351 6.589 6.589 0 002.995-2.27A5.83 5.83 0 0022.675 16c0-1.634-.703-3.202-1.955-4.357-1.252-1.156-2.95-1.805-4.72-1.805zM16 20a4.594 4.594 0 01-2.408-.674 4.088 4.088 0 01-1.596-1.795 3.715 3.715 0 01-.246-2.311 3.915 3.915 0 011.186-2.048 4.455 4.455 0 012.219-1.095 4.669 4.669 0 012.503.228 4.277 4.277 0 011.945 1.473c.476.657.73 1.43.73 2.222 0 1.06-.456 2.078-1.269 2.828S17.15 20 16 20zm8.5-10.4c0 .285-.091.563-.262.8a1.54 1.54 0 01-.7.531c-.285.11-.6.138-.902.083a1.605 1.605 0 01-.799-.394 1.41 1.41 0 01-.427-.738c-.06-.28-.03-.569.088-.832s.319-.488.575-.646c.257-.159.558-.243.867-.243.413 0 .81.152 1.102.422.293.27.457.635.458 1.017z" fill="#fff"/></svg>