<svg width="12" height="12" fill="none" xmlns="http://www.w3.org/2000/svg"><path d="M10.125 10.5a.374.374 0 01-.265-.11L1.61 2.14a.375.375 0 01.53-.53l8.25 8.25a.375.375 0 01-.265.64zM5.813 7.403L4.599 6.189a.047.047 0 00-.08.04 1.503 1.503 0 001.254 1.253.047.047 0 00.04-.08zm.375-2.806l1.215 1.216a.047.047 0 00.08-.04 1.503 1.503 0 00-1.255-1.255.047.047 0 00-.04.08z" fill="#000"/><path d="M11.508 6.407a.755.755 0 00-.002-.815 7.944 7.944 0 00-2.327-2.356c-1-.645-2.1-.986-3.187-.986a5.31 5.31 0 00-1.683.276.094.094 0 00-.036.156L5.38 3.789a.094.094 0 00.09.025 2.25 2.25 0 012.718 2.718.094.094 0 00.025.09l1.592 1.593a.094.094 0 00.127.006 8.058 8.058 0 001.576-1.814zM6 8.25a2.25 2.25 0 01-2.187-2.78.094.094 0 00-.024-.09L2.222 3.813a.094.094 0 00-.127-.005A9.371 9.371 0 00.51 5.582a.748.748 0 00-.015.833c.62.969 1.416 1.785 2.304 2.36 1 .647 2.075.975 3.194.975a5.583 5.583 0 001.703-.27.094.094 0 00.038-.156L6.62 8.21a.094.094 0 00-.09-.024A2.25 2.25 0 016 8.25z" fill="#000"/></svg>