<svg width="48" height="48" fill="none" xmlns="http://www.w3.org/2000/svg"><path d="M34.5 3h-21A4.5 4.5 0 009 7.5v33a4.5 4.5 0 004.5 4.5h21a4.5 4.5 0 004.5-4.5v-33A4.5 4.5 0 0034.5 3z" stroke="#fff" stroke-width="2" stroke-linejoin="round"/><path d="M19.454 4.663h9" stroke="#fff" stroke-width="2" stroke-linecap="round" stroke-linejoin="round"/><path d="M31.264 26.673A3.717 3.717 0 0028.5 25.5c-1.087 0-2.071.413-2.77 1.165-.698.752-1.05 1.793-.969 2.907.16 2.2 1.838 3.99 3.739 3.99 1.901 0 3.576-1.79 3.738-3.989.082-1.104-.265-2.134-.974-2.9zM34.846 42H22.154a1.13 1.13 0 01-1.119-.873 1.219 1.219 0 01-.012-.542c.304-1.646 1.254-3.029 2.746-4 1.326-.86 3.006-1.335 4.731-1.335s3.405.474 4.73 1.336c1.493.97 2.443 2.353 2.748 4a1.219 1.219 0 01-.26 1.023 1.129 1.129 0 01-.872.39z" fill="#fff"/></svg>