<svg width="33" height="33" viewBox="0 0 33 33" fill="none" xmlns="http://www.w3.org/2000/svg">
<path fill-rule="evenodd" clip-rule="evenodd" d="M19.3604 0.667585C19.5481 0.667585 19.7177 0.74507 19.839 0.869804L27.9853 9.01603C28.11 9.13733 28.1875 9.30696 28.1875 9.4947L28.1874 9.50514V27.4456C28.1874 28.4883 27.7732 29.4883 27.0359 30.2256C26.2987 30.9628 25.2987 31.377 24.256 31.377H7.93698C6.89431 31.377 5.89434 30.9628 5.15706 30.2256C4.41978 29.4883 4.00558 28.4883 4.00558 27.4456V4.599C4.00558 3.55633 4.41978 2.55636 5.15706 1.81908C5.89434 1.0818 6.89431 0.667597 7.93698 0.667597H19.3564L19.3604 0.667585ZM7.93698 2.00279H18.6928V7.86279C18.6928 8.47266 18.9351 9.05754 19.3663 9.48878C19.7975 9.92002 20.3824 10.1623 20.9923 10.1623H26.8522V27.4456C26.8522 28.1342 26.5787 28.7946 26.0918 29.2814C25.6049 29.7683 24.9446 30.0418 24.256 30.0418H7.93698C7.24843 30.0418 6.58807 29.7683 6.10119 29.2814C5.6143 28.7946 5.34077 28.1342 5.34077 27.4456V4.599C5.34077 3.91044 5.6143 3.25009 6.10119 2.7632C6.58807 2.27632 7.24842 2.00279 7.93698 2.00279ZM20.9923 8.8271H25.9081L20.028 2.947V7.86279C20.028 8.11854 20.1296 8.36382 20.3104 8.54466C20.4913 8.7255 20.7365 8.8271 20.9923 8.8271ZM8.67883 13.3519C8.31012 13.3519 8.01123 13.6508 8.01123 14.0195C8.01123 14.3882 8.31012 14.6871 8.67883 14.6871H23.366C23.7347 14.6871 24.0336 14.3882 24.0336 14.0195C24.0336 13.6508 23.7347 13.3519 23.366 13.3519H8.67883ZM8.67876 18.0251C8.31005 18.0251 8.01116 18.324 8.01116 18.6927C8.01116 19.0614 8.31005 19.3603 8.67876 19.3603H15.3547C15.7234 19.3603 16.0223 19.0614 16.0223 18.6927C16.0223 18.324 15.7234 18.0251 15.3547 18.0251H8.67876ZM8.01116 23.3659C8.01116 22.9972 8.31005 22.6983 8.67876 22.6983H17.3575C17.7262 22.6983 18.0251 22.9972 18.0251 23.3659C18.0251 23.7346 17.7262 24.0335 17.3575 24.0335H8.67876C8.31005 24.0335 8.01116 23.7346 8.01116 23.3659Z" fill="#1D1D1D"/>
</svg>
