<svg width="32" height="32" viewBox="0 0 32 32" fill="none" xmlns="http://www.w3.org/2000/svg">
<path d="M11.0938 14.3479C14.6882 14.3479 17.6021 11.434 17.6021 7.83957C17.6021 4.24512 14.6882 1.33124 11.0938 1.33124C7.49933 1.33124 4.58545 4.24512 4.58545 7.83957C4.58545 11.434 7.49933 14.3479 11.0938 14.3479Z" stroke="#1D1D1D" stroke-width="1.33125" stroke-linecap="round" stroke-linejoin="round"/>
<path d="M1.3313 30.6188V27.3646C1.3313 25.6385 2.017 23.9831 3.23755 22.7625C4.45809 21.542 6.11351 20.8563 7.83963 20.8563H14.348C16.0741 20.8563 17.7295 21.542 18.9501 22.7625C20.1706 23.9831 20.8563 25.6385 20.8563 27.3646V30.6188" stroke="#1D1D1D" stroke-width="1.33125" stroke-linecap="round" stroke-linejoin="round"/>
<path d="M22.4834 1.54272C23.8834 1.90117 25.1242 2.71537 26.0103 3.85694C26.8964 4.99852 27.3774 6.40255 27.3774 7.84767C27.3774 9.2928 26.8964 10.6968 26.0103 11.8384C25.1242 12.98 23.8834 13.7942 22.4834 14.1526" stroke="#1D1D1D" stroke-width="1.33125" stroke-linecap="round" stroke-linejoin="round"/>
<path d="M30.6188 30.6188V27.3646C30.6105 25.9282 30.1273 24.5348 29.2443 23.4017C28.3614 22.2686 27.1284 21.4594 25.7375 21.1003" stroke="#1D1D1D" stroke-width="1.33125" stroke-linecap="round" stroke-linejoin="round"/>
</svg>
