<svg width="48" height="48" viewBox="0 0 48 48" fill="none" xmlns="http://www.w3.org/2000/svg">
<path fill-rule="evenodd" clip-rule="evenodd" d="M11.8889 3C10.8575 3 9.86834 3.40972 9.13903 4.13903C8.40972 4.86834 8 5.85749 8 6.88889V41.1111C8 42.1425 8.40972 43.1317 9.13903 43.861C9.86834 44.5903 10.8575 45 11.8889 45H36.3333C37.3647 45 38.3539 44.5903 39.0832 43.861C39.8125 43.1317 40.2222 42.1425 40.2222 41.1111V15.2222H31.4444C30.5309 15.2222 29.6548 14.8593 29.0089 14.2134C28.3629 13.5674 28 12.6913 28 11.7778V3H11.8889ZM41.9958 13.5885C41.9749 13.563 41.9528 13.5386 41.9293 13.5151L29.7071 1.29289C29.7006 1.28642 29.6941 1.28005 29.6875 1.27378C29.5083 1.10408 29.2663 1 29 1H11.8889C10.3271 1 8.8292 1.62043 7.72482 2.72482C6.62043 3.8292 6 5.32706 6 6.88889V41.1111C6 42.6729 6.62043 44.1708 7.72482 45.2752C8.8292 46.3796 10.3271 47 11.8889 47H36.3333C37.8952 47 39.393 46.3796 40.4974 45.2752C41.6018 44.1708 42.2222 42.6729 42.2222 41.1111V14.2222C42.2222 14.2016 42.2216 14.181 42.2203 14.1605C42.2074 13.9507 42.1286 13.7506 41.9958 13.5885ZM38.808 13.2222L30 4.41421V11.7778C30 12.1609 30.1522 12.5283 30.4231 12.7992C30.694 13.07 31.0614 13.2222 31.4444 13.2222H38.808ZM12 25C12 24.4477 12.4477 24 13 24H31C31.5523 24 32 24.4477 32 25C32 25.5523 31.5523 26 31 26H13C12.4477 26 12 25.5523 12 25ZM12 32C12 31.4477 12.4477 31 13 31H26C26.5523 31 27 31.4477 27 32C27 32.5523 26.5523 33 26 33H13C12.4477 33 12 32.5523 12 32Z" fill="white"/>
</svg>
