<svg width="48" height="48" viewBox="0 0 48 48" fill="none" xmlns="http://www.w3.org/2000/svg">
<path d="M8.88889 33.7778H6.44444C5.09441 33.7778 4 34.8722 4 36.2223V43.5556C4 44.9056 5.09441 46.0001 6.44444 46.0001H8.88889C10.2389 46.0001 11.3333 44.9056 11.3333 43.5556V36.2223C11.3333 34.8722 10.2389 33.7778 8.88889 33.7778Z" stroke="white" stroke-width="2" stroke-linecap="round" stroke-linejoin="round"/>
<path d="M11.3334 43.5556C11.3334 44.2039 11.5909 44.8256 12.0493 45.2841C12.5078 45.7425 13.1295 46 13.7778 46H22.9591C23.485 46.0001 23.9969 45.8305 24.4188 45.5165C24.8406 45.2025 25.15 44.7609 25.3009 44.2571L28.2343 36.9238C28.4543 36.1831 28.5594 35.3838 28.0974 34.7629C27.6378 34.142 26.7725 33.7778 26 33.7778H21.1112V27.7474C21.1109 27.1705 20.925 26.609 20.5811 26.1458C20.2372 25.6826 19.7535 25.3423 19.2014 25.1752C18.6492 25.008 18.0579 25.0229 17.5149 25.2175C16.9718 25.4122 16.5058 25.7764 16.1856 26.2562L11.3334 33.7778V43.5556V43.5556Z" stroke="white" stroke-width="2" stroke-linecap="round" stroke-linejoin="round"/>
<path d="M30.8889 2V11.7778C30.8889 12.4261 31.1465 13.0478 31.6049 13.5063C32.0633 13.9647 32.6851 14.2222 33.3334 14.2222H43.1111" stroke="white" stroke-width="2" stroke-linecap="round" stroke-linejoin="round"/>
<path d="M8.88892 24.2444V6.88889C8.88892 5.59227 9.40399 4.34877 10.3208 3.43192C11.2377 2.51508 12.4812 2 13.7778 2H30.8889L43.1111 14.2222V41.1111C43.1111 42.4077 42.5961 43.6512 41.6792 44.5681C40.7624 45.4849 39.5189 46 38.2222 46H32.6" stroke="white" stroke-width="2" stroke-linecap="round" stroke-linejoin="round"/>
</svg>
