<svg width="48" height="48" viewBox="0 0 48 48" fill="none" xmlns="http://www.w3.org/2000/svg">
<path d="M8 16H40" stroke="white" stroke-width="2" stroke-linecap="round" stroke-linejoin="round"/>
<path d="M38 8H10C8.89543 8 8 8.89543 8 10V38C8 39.1046 8.89543 40 10 40H38C39.1046 40 40 39.1046 40 38V10C40 8.89543 39.1046 8 38 8Z" stroke="white" stroke-width="2" stroke-linecap="round" stroke-linejoin="round"/>
<path d="M30.7071 24.7071C31.0976 24.3166 31.0976 23.6834 30.7071 23.2929C30.3166 22.9024 29.6834 22.9024 29.2929 23.2929L30.7071 24.7071ZM22 32L21.2929 32.7071C21.6834 33.0976 22.3166 33.0976 22.7071 32.7071L22 32ZM18.7071 27.2929C18.3166 26.9024 17.6834 26.9024 17.2929 27.2929C16.9024 27.6834 16.9024 28.3166 17.2929 28.7071L18.7071 27.2929ZM29.2929 23.2929L21.2929 31.2929L22.7071 32.7071L30.7071 24.7071L29.2929 23.2929ZM22.7071 31.2929L18.7071 27.2929L17.2929 28.7071L21.2929 32.7071L22.7071 31.2929Z" fill="white"/>
<path d="M32 4V8" stroke="white" stroke-width="2" stroke-linecap="round" stroke-linejoin="round"/>
<path d="M16 4V8" stroke="white" stroke-width="2" stroke-linecap="round" stroke-linejoin="round"/>
</svg>
