<svg width="32" height="32" viewBox="0 0 32 32" fill="none" xmlns="http://www.w3.org/2000/svg">
<path d="M16 4C12.4683 4 12.0274 4.015 10.6408 4.072C9.56232 4.09279 8.49542 4.28144 7.485 4.63C6.61727 4.93103 5.83123 5.40337 5.18183 6.014C4.51975 6.61301 4.00796 7.33871 3.6825 8.14C3.30437 9.07256 3.09998 10.0575 3.078 11.053C3.013 12.333 3 12.74 3 16C3 19.26 3.01625 19.667 3.078 20.947C3.10062 21.9425 3.30499 22.9273 3.6825 23.86C4.0089 24.6609 4.52056 25.3864 5.18183 25.986C5.83105 26.5968 6.61714 27.0692 7.485 27.37C8.49547 27.7184 9.56234 27.907 10.6408 27.928C12.0274 27.988 12.4683 28 16 28C19.5317 28 19.9726 27.985 21.3593 27.928C22.4376 27.9066 23.5044 27.718 24.515 27.37C25.3788 27.0619 26.1633 26.5904 26.8181 25.986C27.473 25.3815 27.9837 24.6574 28.3175 23.86C28.695 22.9273 28.8994 21.9425 28.922 20.947C28.987 19.667 29 19.26 29 16C29 12.74 28.9838 12.333 28.922 11.053C28.8989 10.0576 28.6946 9.07283 28.3175 8.14C27.9909 7.33922 27.4793 6.61373 26.8182 6.014C26.1694 5.40264 25.3832 4.93019 24.515 4.63C23.5047 4.28105 22.4377 4.09239 21.3593 4.072C19.9726 4.012 19.5317 4 16 4ZM16 6.16C19.4667 6.16 19.8838 6.176 21.2542 6.231C22.0782 6.24017 22.8944 6.38056 23.6668 6.646C24.2283 6.84416 24.7384 7.14936 25.1636 7.5417C25.5888 7.93404 25.9197 8.4047 26.1346 8.923C26.4211 9.63612 26.5725 10.3895 26.582 11.15C26.6438 12.416 26.6578 12.796 26.6578 16C26.6578 19.204 26.6416 19.585 26.5777 20.85C26.5626 21.6108 26.4084 22.3637 26.1216 23.077C25.9098 23.5978 25.577 24.0696 25.1466 24.459C24.7268 24.8577 24.2161 25.1652 23.6516 25.359C22.876 25.6234 22.0571 25.7631 21.2303 25.772C19.8502 25.829 19.4439 25.842 15.9664 25.842C12.4889 25.842 12.0816 25.827 10.7025 25.768C9.87517 25.7542 9.05627 25.6119 8.28017 25.347C7.71554 25.1539 7.20504 24.8464 6.78625 24.447C6.35138 24.0617 6.01786 23.5897 5.81125 23.067C5.52494 22.3508 5.37113 21.5953 5.35625 20.832C5.3075 19.572 5.29017 19.183 5.29017 15.988C5.29017 12.793 5.3075 12.402 5.35625 11.127C5.37242 10.3627 5.52808 9.60648 5.81667 8.89C6.02004 8.36555 6.354 7.89251 6.79167 7.509C7.20631 7.10503 7.71806 6.79674 8.28558 6.609C9.05579 6.34347 9.8696 6.20175 10.6917 6.19C12.0729 6.145 12.4792 6.13 15.9556 6.13L16 6.16ZM16 9.838C14.6797 9.838 13.3891 10.1994 12.2913 10.8765C11.1935 11.5536 10.3379 12.5159 9.83264 13.6419C9.32739 14.7679 9.19519 16.0068 9.45277 17.2021C9.71034 18.3975 10.3461 19.4954 11.2797 20.3572C12.2133 21.219 13.4028 21.8058 14.6977 22.0436C15.9926 22.2814 17.3348 22.1593 18.5546 21.6929C19.7744 21.2266 20.817 20.4368 21.5505 19.4234C22.284 18.4101 22.6755 17.2187 22.6755 16C22.6755 14.3657 21.9722 12.7984 20.7203 11.6428C19.4684 10.4872 17.7705 9.838 16 9.838V9.838ZM16 20C15.1429 20 14.3051 19.7654 13.5925 19.3259C12.8799 18.8864 12.3245 18.2616 11.9965 17.5307C11.6685 16.7998 11.5827 15.9956 11.7499 15.2196C11.9171 14.4437 12.3298 13.731 12.9359 13.1716C13.5419 12.6122 14.314 12.2312 15.1546 12.0769C15.9952 11.9225 16.8665 12.0017 17.6583 12.3045C18.4501 12.6072 19.1269 13.1199 19.603 13.7777C20.0792 14.4355 20.3333 15.2089 20.3333 16C20.3333 17.0609 19.8768 18.0783 19.0641 18.8284C18.2515 19.5786 17.1493 20 16 20ZM24.4998 9.6C24.5 9.88485 24.4087 10.1634 24.2375 10.4003C24.0662 10.6372 23.8226 10.822 23.5376 10.9311C23.2525 11.0402 22.9388 11.0689 22.6362 11.0135C22.3335 10.958 22.0554 10.8209 21.8371 10.6196C21.6189 10.4182 21.4702 10.1617 21.4099 9.8823C21.3496 9.60294 21.3804 9.31335 21.4985 9.05017C21.6165 8.78698 21.8165 8.56203 22.073 8.40375C22.3296 8.24548 22.6312 8.161 22.9398 8.161C23.3533 8.16126 23.7498 8.31293 24.0422 8.58271C24.3347 8.85248 24.4993 9.21834 24.4998 9.6V9.6Z" fill="white"/>
</svg>
