<svg width="12" height="12" viewBox="0 0 12 12" fill="none" xmlns="http://www.w3.org/2000/svg">
  <path d="M6 7.5C6.82843 7.5 7.5 6.82843 7.5 6C7.5 5.17157 6.82843 4.5 6 4.5C5.17157 4.5 4.5 5.17157 4.5 6C4.5 6.82843 5.17157 7.5 6 7.5Z" fill="black"/>
  <path d="M11.5041 5.59219C10.8839 4.63313 10.0793 3.81844 9.17742 3.23602C8.17969 2.59102 7.07812 2.25 5.99203 2.25C4.99547 2.25 4.01554 2.53477 3.07945 3.09633C2.12484 3.66891 1.25999 4.50539 0.508823 5.58234C0.424022 5.70406 0.377319 5.84823 0.374648 5.99655C0.371977 6.14486 0.413459 6.29063 0.493823 6.41531C1.11281 7.38398 1.90945 8.19984 2.79726 8.7743C3.79687 9.42188 4.87265 9.75 5.99203 9.75C7.0868 9.75 8.1907 9.4118 9.18422 8.77219C10.0856 8.19164 10.8886 7.37391 11.5064 6.40687C11.584 6.28509 11.625 6.14359 11.6246 5.99919C11.6242 5.85478 11.5824 5.71353 11.5041 5.59219ZM6 8.25C5.55499 8.25 5.11998 8.11804 4.74996 7.87081C4.37995 7.62357 4.09157 7.27217 3.92127 6.86104C3.75097 6.4499 3.70641 5.9975 3.79323 5.56105C3.88005 5.12459 4.09434 4.72368 4.40901 4.40901C4.72368 4.09434 5.12459 3.88005 5.56104 3.79323C5.9975 3.70642 6.4499 3.75097 6.86104 3.92127C7.27217 4.09157 7.62357 4.37996 7.87081 4.74997C8.11804 5.11998 8.25 5.55499 8.25 6C8.24932 6.59653 8.01205 7.16843 7.59024 7.59024C7.16843 8.01205 6.59653 8.24932 6 8.25Z" fill="black"/>
</svg>
