<svg width="12" height="12" viewBox="0 0 12 12" fill="none" xmlns="http://www.w3.org/2000/svg">
  <path d="M10.125 10.5C10.0758 10.5001 10.027 10.4904 9.98151 10.4716C9.93601 10.4527 9.8947 10.425 9.85996 10.3901L1.60997 2.14012C1.54261 2.06923 1.50561 1.97482 1.50687 1.87703C1.50812 1.77925 1.54752 1.68582 1.61667 1.61667C1.68582 1.54752 1.77925 1.50812 1.87703 1.50687C1.97482 1.50561 2.06923 1.54261 2.14012 1.60997L10.3901 9.85996C10.4425 9.9124 10.4782 9.97921 10.4927 10.0519C10.5071 10.1246 10.4997 10.2 10.4713 10.2685C10.443 10.337 10.3949 10.3956 10.3333 10.4368C10.2717 10.478 10.1992 10.5 10.125 10.5V10.5ZM5.81254 7.40278L4.59872 6.18895C4.59176 6.18205 4.58282 6.17751 4.57315 6.17595C4.56348 6.1744 4.55356 6.17591 4.5448 6.18028C4.53603 6.18465 4.52885 6.19166 4.52427 6.20032C4.51969 6.20898 4.51794 6.21885 4.51926 6.22856C4.56827 6.54347 4.71613 6.83465 4.94149 7.06C5.16685 7.28536 5.45802 7.43322 5.77293 7.48223C5.78264 7.48355 5.79252 7.4818 5.80117 7.47722C5.80983 7.47264 5.81684 7.46546 5.82121 7.4567C5.82558 7.44793 5.82709 7.43801 5.82554 7.42834C5.82399 7.41867 5.81944 7.40973 5.81254 7.40278ZM6.18754 4.59731L7.40324 5.81254C7.41018 5.81954 7.41915 5.82417 7.42887 5.82578C7.43859 5.82739 7.44857 5.82589 7.45739 5.82151C7.46621 5.81712 7.47343 5.81007 7.47801 5.80135C7.4826 5.79263 7.48432 5.78269 7.48293 5.77293C7.43405 5.45759 7.28608 5.16599 7.06044 4.94035C6.8348 4.71471 6.54319 4.56674 6.22785 4.51786C6.21809 4.51635 6.2081 4.51797 6.19931 4.52248C6.19052 4.52699 6.18338 4.53416 6.1789 4.54297C6.17443 4.55179 6.17286 4.56178 6.17441 4.57154C6.17596 4.5813 6.18056 4.59032 6.18754 4.59731V4.59731Z" fill="black"/>
  <path d="M11.5078 6.40687C11.5854 6.28509 11.6264 6.14359 11.626 5.99919C11.6256 5.85478 11.5838 5.71353 11.5055 5.59219C10.8853 4.63313 10.0807 3.81844 9.17883 3.23602C8.17968 2.59102 7.07812 2.25 5.9925 2.25C5.42018 2.25079 4.85175 2.3441 4.30922 2.52633C4.29403 2.53138 4.28039 2.54023 4.2696 2.55204C4.2588 2.56386 4.25121 2.57824 4.24755 2.59381C4.24388 2.60939 4.24426 2.62565 4.24866 2.64103C4.25305 2.65642 4.26131 2.67043 4.27265 2.68172L5.37984 3.78891C5.39134 3.80043 5.40565 3.80876 5.42135 3.81307C5.43705 3.81739 5.4536 3.81754 5.46937 3.81352C5.84467 3.72206 6.23719 3.72876 6.60914 3.83298C6.98109 3.93719 7.31995 4.13541 7.59309 4.40855C7.86623 4.68169 8.06445 5.02055 8.16866 5.3925C8.27288 5.76445 8.27958 6.15697 8.18812 6.53227C8.18414 6.54801 8.18431 6.56451 8.18863 6.58017C8.19294 6.59582 8.20125 6.61008 8.21273 6.62156L9.80531 8.21531C9.82188 8.23191 9.84407 8.2417 9.8675 8.24274C9.89093 8.24378 9.9139 8.236 9.93187 8.22094C10.5449 7.69842 11.0761 7.08693 11.5078 6.40687ZM6 8.25C5.65939 8.25002 5.32323 8.17271 5.01685 8.0239C4.71047 7.87509 4.44187 7.65866 4.23131 7.39093C4.02075 7.12321 3.87372 6.81117 3.80131 6.47835C3.7289 6.14553 3.73299 5.80062 3.81328 5.46961C3.81726 5.45387 3.81709 5.43736 3.81277 5.42171C3.80846 5.40606 3.80015 5.39179 3.78867 5.38031L2.22211 3.81305C2.2055 3.79642 2.18324 3.78663 2.15976 3.78563C2.13628 3.78464 2.11327 3.7925 2.09531 3.80766C1.52367 4.29539 0.993749 4.88883 0.509296 5.58234C0.424495 5.70406 0.377792 5.84823 0.375121 5.99655C0.37245 6.14486 0.413932 6.29063 0.494296 6.41531C1.11328 7.38398 1.90969 8.19984 2.79773 8.7743C3.79828 9.42187 4.87312 9.75 5.9925 9.75C6.57059 9.74845 7.14493 9.65713 7.695 9.4793C7.71032 9.4744 7.72412 9.46565 7.73508 9.45388C7.74604 9.44211 7.75379 9.42771 7.75758 9.41208C7.76137 9.39645 7.76108 9.38011 7.75672 9.36463C7.75237 9.34914 7.74411 9.33504 7.73273 9.32367L6.62015 8.21133C6.60867 8.19984 6.59441 8.19154 6.57876 8.18722C6.5631 8.18291 6.5466 8.18274 6.53086 8.18672C6.35705 8.22883 6.17884 8.25008 6 8.25V8.25Z" fill="black"/>
</svg>
