<svg width="32" height="32" viewBox="0 0 32 32" fill="none" xmlns="http://www.w3.org/2000/svg">
<path d="M25.2553 6.99691C24.9443 7.01443 24.6391 7.07091 24.3515 7.16416H24.3476C24.0715 7.24891 22.7589 7.67641 20.7632 8.32441L13.6119 10.6562C8.48044 12.3287 3.43616 13.9757 3.43616 13.9757L3.49623 13.9577C3.49623 13.9577 3.14845 14.0462 2.78516 14.2389C2.56073 14.3495 2.36761 14.4941 2.21748 14.6642C2.03923 14.8667 1.89585 15.1764 1.94913 15.4967C2.03632 16.0382 2.4897 16.3629 2.8152 16.5422C3.14457 16.7237 3.45845 16.8084 3.45845 16.8084H3.4662L8.1966 18.0422C8.40876 18.5694 9.6381 21.6984 9.93357 22.4192C10.1079 22.8497 10.2775 23.1189 10.4896 23.3244C10.5923 23.4294 10.7124 23.5172 10.8568 23.5877C10.9318 23.6215 11.0118 23.6481 11.0951 23.6672L11.0467 23.6582C11.0612 23.6612 11.0728 23.6702 11.0835 23.6732C11.1222 23.6814 11.1484 23.6844 11.1978 23.6904C11.9466 23.8659 12.5482 23.5059 12.5482 23.5059L12.5821 23.4849L15.375 21.5162L20.056 24.2964L20.1626 24.3317C21.1381 24.6632 22.1263 24.4787 22.6484 24.1532C23.1744 23.8254 23.3789 23.4062 23.3789 23.4062L23.4128 23.3387L27.0301 8.99191C27.1328 8.63791 27.1589 8.30641 27.0456 7.98466C26.9287 7.65903 26.6588 7.37897 26.289 7.19941C25.9784 7.05325 25.6183 6.9827 25.2553 6.99691V6.99691ZM25.1575 8.53441C25.1536 8.58166 25.1652 8.57641 25.1381 8.66716V8.67541L21.5547 22.8729C21.5392 22.8932 21.513 22.9374 21.4414 22.9817C21.3658 23.0282 21.3057 23.0574 20.9909 22.9607L15.2656 19.5624L11.8071 22.0029L12.5337 18.4104L21.8879 11.6604C22.2735 11.3829 22.1447 11.3244 22.1447 11.3244C22.1718 10.9839 21.5624 11.2247 21.5624 11.2247L9.76695 16.8819L9.76307 16.8669L4.10945 15.3932V15.3902L4.09491 15.3879C4.10483 15.3854 4.11453 15.3824 4.12398 15.3789L4.15498 15.3669L4.18501 15.3587C4.18501 15.3587 9.23316 13.7117 14.3646 12.0392C16.9338 11.2014 19.5223 10.3577 21.513 9.70666C23.5038 9.05941 24.9754 8.58466 25.0587 8.55916C25.1381 8.53516 25.1003 8.53516 25.1575 8.53516V8.53441Z" fill="white"/>
</svg>
