<svg width="48" height="48" viewBox="0 0 48 48" fill="none" xmlns="http://www.w3.org/2000/svg">
<path d="M34.5 3H13.5C11.0147 3 9 5.01472 9 7.5V40.5C9 42.9853 11.0147 45 13.5 45H34.5C36.9853 45 39 42.9853 39 40.5V7.5C39 5.01472 36.9853 3 34.5 3Z" stroke="white" stroke-width="2" stroke-linejoin="round"/>
<path d="M19.4537 4.66284H28.4537" stroke="white" stroke-width="2" stroke-linecap="round" stroke-linejoin="round"/>
<path d="M31.2637 26.6727C30.9099 26.2958 30.4814 25.9968 30.0055 25.7949C29.5296 25.5929 29.0169 25.4925 28.5 25.4999C27.4125 25.4999 26.429 25.9133 25.7306 26.6652C25.0321 27.4171 24.6806 28.4577 24.7612 29.5715C24.9215 31.7727 26.5987 33.5624 28.5 33.5624C30.4012 33.5624 32.0756 31.7727 32.2378 29.5733C32.3203 28.469 31.9734 27.4386 31.2637 26.6727ZM34.8459 41.9999H22.154C21.9888 42.0025 21.825 41.9689 21.6742 41.9013C21.5234 41.8338 21.3892 41.734 21.2812 41.609C21.1641 41.4686 21.08 41.3038 21.0352 41.1266C20.9904 40.9493 20.9861 40.7643 21.0225 40.5852C21.3271 38.939 22.2768 37.5561 23.7693 36.5858C25.095 35.7243 26.775 35.2499 28.5 35.2499C30.225 35.2499 31.905 35.7243 33.2306 36.5858C34.7231 37.5561 35.6728 38.939 35.9775 40.5852C36.0139 40.7643 36.0095 40.9493 35.9647 41.1266C35.9199 41.3038 35.8359 41.4686 35.7187 41.609C35.6107 41.734 35.4765 41.8338 35.3257 41.9013C35.1749 41.9689 35.0111 42.0025 34.8459 41.9999V41.9999Z" fill="white"/>
</svg>
