<svg width="32" height="32" viewBox="0 0 32 32" fill="none" xmlns="http://www.w3.org/2000/svg">
<g clip-path="url(#clip0_1002_364)">
<path d="M31.2707 7.42415C31.4907 6.60371 31.2707 5.9998 30.2133 5.9998H26.7147C26.3876 5.97407 26.0619 6.06724 25.7872 6.2651C25.5125 6.46297 25.3039 6.75466 25.1933 7.09568C24.1085 9.94504 22.6601 12.6082 20.892 15.004C20.0787 15.9025 19.704 16.1912 19.2587 16.1912C19.0387 16.1912 18.7 15.8966 18.7 15.0821V7.42268C18.7 6.43874 18.4507 5.99833 17.7133 5.99833H12.2133C12.1022 5.99137 11.991 6.00875 11.886 6.04947C11.781 6.09018 11.6844 6.15343 11.6016 6.23556C11.5188 6.3177 11.4516 6.41711 11.4037 6.52806C11.3558 6.63902 11.3283 6.75934 11.3227 6.8821C11.3227 7.81449 12.5827 8.03101 12.7133 10.6558V16.3518C12.7133 17.5994 12.512 17.8247 12.0653 17.8247C10.8773 17.8247 7.99067 13.0081 6.27867 7.49485C5.93467 6.43285 5.58933 5.9998 4.69867 5.9998H1.2C0.201333 5.9998 0 6.51828 0 7.09568C0 8.12676 1.188 13.2055 5.53067 19.9252C8.424 24.512 12.4987 26.9954 16.2053 26.9954C18.4333 26.9954 18.7067 26.4445 18.7067 25.493C18.7067 21.1094 18.5053 20.6955 19.6213 20.6955C20.1387 20.6955 21.0293 20.9901 23.108 23.1996C25.484 25.8244 25.876 26.9998 27.2067 26.9998H30.7053C31.704 26.9998 32.208 26.4489 31.9173 25.3589C31.2507 23.0685 26.7547 18.3565 26.5533 18.0413C26.036 17.3048 26.1853 16.9778 26.5533 16.3223C26.5533 16.3223 30.8307 9.67484 31.2707 7.42415V7.42415Z" fill="white"/>
</g>
<defs>
<clipPath id="clip0_1002_364">
<rect width="32" height="21" fill="white" transform="translate(0 6)"/>
</clipPath>
</defs>
</svg>
