<svg width="48" height="48" fill="none" xmlns="http://www.w3.org/2000/svg"><path d="M8 16h32m-2-8H10a2 2 0 00-2 2v28a2 2 0 002 2h28a2 2 0 002-2V10a2 2 0 00-2-2z" stroke="#fff" stroke-width="2" stroke-linecap="round" stroke-linejoin="round"/><path d="M30.707 24.707a1 1 0 00-1.414-1.414l1.414 1.414zM22 32l-.707.707a1 1 0 001.414 0L22 32zm-3.293-4.707a1 1 0 00-1.414 1.414l1.414-1.414zm10.586-4l-8 8 1.414 1.414 8-8-1.414-1.414zm-6.586 8l-4-4-1.414 1.414 4 4 1.414-1.414z" fill="#fff"/><path d="M32 4v4M16 4v4" stroke="#fff" stroke-width="2" stroke-linecap="round" stroke-linejoin="round"/></svg>