<svg width="12" height="12" fill="none" xmlns="http://www.w3.org/2000/svg"><path d="M6 7.5a1.5 1.5 0 100-3 1.5 1.5 0 000 3z" fill="#000"/><path d="M11.504 5.592a7.944 7.944 0 00-2.327-2.356c-.997-.645-2.099-.986-3.185-.986-.997 0-1.976.285-2.913.846-.954.573-1.819 1.41-2.57 2.486a.748.748 0 00-.015.833c.619.969 1.415 1.785 2.303 2.36 1 .647 2.076.975 3.195.975 1.095 0 2.199-.338 3.192-.978.902-.58 1.705-1.398 2.322-2.365a.755.755 0 00-.002-.815zM6 8.25a2.25 2.25 0 110-4.5 2.25 2.25 0 010 4.5z" fill="#000"/></svg>