<svg width="32" height="32" fill="none" xmlns="http://www.w3.org/2000/svg"><path d="M25.255 6.997a3.592 3.592 0 00-.903.167h-.004c-.276.085-1.59.512-3.585 1.16l-7.151 2.332c-5.132 1.673-10.176 3.32-10.176 3.32l.06-.018s-.348.088-.71.28a1.871 1.871 0 00-.569.426c-.178.203-.321.512-.268.833.087.541.54.866.866 1.045.33.182.643.266.643.266h.008l4.73 1.234c.213.527 1.442 3.656 1.738 4.377.174.43.344.7.556.905.102.105.222.193.367.264.075.034.155.06.238.08l-.048-.01c.014.003.026.012.037.015.038.008.064.011.114.017.749.176 1.35-.184 1.35-.184l.034-.021 2.793-1.969 4.681 2.78.107.036c.975.331 1.963.147 2.485-.179.526-.328.73-.747.73-.747l.035-.067L27.03 8.992c.103-.354.129-.686.016-1.007-.117-.326-.387-.606-.757-.786a2.24 2.24 0 00-1.034-.202zm-.098 1.537c-.003.048.008.042-.019.133v.008l-3.583 14.198c-.016.02-.042.064-.114.109-.075.046-.135.075-.45-.021l-5.725-3.399-3.459 2.44.727-3.592 9.354-6.75c.385-.277.257-.336.257-.336.027-.34-.583-.1-.583-.1L9.767 16.883l-.004-.015-5.654-1.474v-.003l-.014-.002a.282.282 0 00.029-.01l.031-.011.03-.008 10.18-3.32c2.569-.838 5.157-1.681 7.148-2.332a824.6 824.6 0 013.546-1.148c.08-.024.041-.024.098-.024z" fill="#fff"/></svg>