<svg width="32" height="32" fill="none" xmlns="http://www.w3.org/2000/svg"><g clip-path="url(#clip0_1002_364)"><path d="M31.27 7.424c.22-.82 0-1.424-1.057-1.424h-3.498a1.395 1.395 0 00-.928.265c-.274.198-.483.49-.594.83a33.218 33.218 0 01-4.301 7.909c-.813.899-1.188 1.187-1.633 1.187-.22 0-.559-.294-.559-1.109v-7.66c0-.983-.25-1.424-.987-1.424h-5.5a.77.77 0 00-.327.051.831.831 0 00-.284.187.931.931 0 00-.198.292 1.01 1.01 0 00-.081.354c0 .932 1.26 1.149 1.39 3.774v5.696c0 1.247-.201 1.473-.648 1.473-1.188 0-4.074-4.817-5.786-10.33C5.935 6.433 5.589 6 4.699 6H1.2C.201 6 0 6.518 0 7.096c0 1.03 1.188 6.11 5.53 12.83 2.894 4.586 6.969 7.07 10.675 7.07 2.228 0 2.502-.551 2.502-1.503 0-4.384-.202-4.797.914-4.797.518 0 1.408.294 3.487 2.504 2.376 2.624 2.768 3.8 4.099 3.8h3.498c.999 0 1.503-.551 1.212-1.641-.666-2.29-5.162-7.003-5.364-7.318-.517-.736-.368-1.063 0-1.719 0 0 4.278-6.647 4.718-8.898z" fill="#fff"/></g><defs><clipPath id="clip0_1002_364"><path fill="#fff" transform="translate(0 6)" d="M0 0h32v21H0z"/></clipPath></defs></svg>